<svg width="0" height="0" class="hidden">
  <symbol xmlns="http://www.w3.org/2000/svg" fill="none" stroke="currentColor" stroke-width="2" stroke-linecap="round" stroke-linejoin="round" viewBox="0 0 24 24" id="moon">
    <path stroke="none" d="M0 0h24v24H0z" fill="none"></path>
    <path d="M12 3c.132 0 .263 0 .393 0a7.5 7.5 0 0 0 7.92 12.446a9 9 0 1 1 -8.313 -12.454z"></path>
  </symbol>
  <symbol xmlns="http://www.w3.org/2000/svg" fill="none" stroke="currentColor" stroke-width="2" stroke-linecap="round" stroke-linejoin="round" viewBox="0 0 24 24" id="search">
    <path stroke="none" d="M0 0h24v24H0z" fill="none"></path>
    <path d="M10 10m-7 0a7 7 0 1 0 14 0a7 7 0 1 0 -14 0"></path>
    <path d="M21 21l-6 -6"></path>
  </symbol>
  <symbol fill="none" xmlns="http://www.w3.org/2000/svg" viewBox="0 0 171 46" id="siera-logo">
    <g clip-path="url(#clip0_5_10)">
      <path d="M23 3C34.046 3 43 11.954 43 23V37C43 38.5913 42.3678 40.1174 41.2426 41.2426C40.1174 42.3679 38.5913 43 37 43H24V34.226C24 32.224 24.122 30.15 25.172 28.446C25.9237 27.2248 26.9293 26.1796 28.1205 25.3813C29.3117 24.5829 30.6607 24.0501 32.076 23.819L32.459 23.757C32.6169 23.703 32.754 23.601 32.851 23.4653C32.9481 23.3296 33.0002 23.1669 33.0002 23C33.0002 22.8331 32.9481 22.6704 32.851 22.5347C32.754 22.399 32.6169 22.297 32.459 22.243L32.076 22.181C30.0082 21.8432 28.0987 20.8644 26.6171 19.3829C25.1355 17.9013 24.1568 15.9918 23.819 13.924L23.757 13.541C23.703 13.3831 23.601 13.246 23.4653 13.149C23.3295 13.0519 23.1669 12.9997 23 12.9997C22.8331 12.9997 22.6704 13.0519 22.5347 13.149C22.399 13.246 22.297 13.3831 22.243 13.541L22.181 13.924C21.9499 15.3393 21.4171 16.6883 20.6188 17.8795C19.8204 19.0707 18.7752 20.0763 17.554 20.828C15.85 21.878 13.776 22 11.774 22H3.02399C3.54699 11.419 12.29 3 23 3Z" fill="currentColor"></path>
      <path d="M3 24H11.774C13.776 24 15.85 24.122 17.554 25.172C18.886 25.9928 20.0072 27.114 20.828 28.446C21.878 30.15 22 32.224 22 34.226V43H9C7.4087 43 5.88258 42.3679 4.75736 41.2426C3.63214 40.1174 3 38.5913 3 37L3 24Z" fill="currentColor"></path>
    </g>
    <path d="M66.308 24.046C66.2 23.398 65.966 22.786 65.606 22.21C64.922 21.022 63.572 20.428 61.556 20.428C60.476 20.428 59.648 20.554 59.072 20.806C58.316 21.094 57.74 21.508 57.344 22.048C56.984 22.588 56.804 23.182 56.804 23.83C56.804 24.622 57.092 25.342 57.668 25.99C58.28 26.674 59.27 27.034 60.638 27.07C63.05 27.178 64.994 27.466 66.47 27.934C67.982 28.402 69.134 29.212 69.926 30.364C70.754 31.516 71.168 33.136 71.168 35.224C71.168 37.348 70.358 39.184 68.738 40.732C67.946 41.488 67.01 42.1 65.93 42.568C64.886 43.036 63.788 43.27 62.636 43.27H61.826C58.946 43.27 56.624 42.442 54.86 40.786C53.42 39.454 52.52 37.582 52.16 35.17H56.966C57.146 36.034 57.506 36.736 58.046 37.276C58.874 38.068 60.026 38.464 61.502 38.464C61.898 38.464 62.186 38.446 62.366 38.41C63.626 38.338 64.616 37.996 65.336 37.384C66.056 36.736 66.416 35.944 66.416 35.008C66.416 33.712 66.02 32.866 65.228 32.47C64.436 32.074 62.906 31.876 60.638 31.876C57.794 31.876 55.616 30.976 54.104 29.176C52.88 27.808 52.268 26.08 52.268 23.992C52.268 23.524 52.286 23.164 52.322 22.912C52.61 20.572 53.564 18.79 55.184 17.566C56.84 16.306 59.018 15.676 61.718 15.676C63.698 15.676 65.426 16.108 66.902 16.972C67.946 17.62 68.846 18.52 69.602 19.672C70.322 20.824 70.79 22.264 71.006 23.992L70.898 24.046H66.308ZM80.6526 12.112C79.9686 12.112 79.3746 11.878 78.8706 11.41C78.4026 10.906 78.1686 10.312 78.1686 9.628C78.1686 8.944 78.4026 8.368 78.8706 7.9C79.3746 7.396 79.9686 7.144 80.6526 7.144C81.3366 7.144 81.9126 7.396 82.3806 7.9C82.8846 8.368 83.1366 8.944 83.1366 9.628C83.1366 10.312 82.8846 10.906 82.3806 11.41C81.9126 11.878 81.3366 12.112 80.6526 12.112ZM78.4386 43V16H82.9746V43H78.4386ZM93.7265 31.552C93.7265 32.416 94.0325 33.316 94.6445 34.252C95.2925 35.188 96.0305 35.98 96.8585 36.628C98.3705 37.816 100.135 38.41 102.151 38.41C105.355 38.41 107.965 36.862 109.981 33.766L114.085 36.196C112.681 38.464 110.953 40.21 108.901 41.434C106.849 42.658 104.599 43.27 102.151 43.27C100.315 43.27 98.5685 42.928 96.9125 42.244C95.2565 41.524 93.7985 40.534 92.5385 39.274C91.2785 38.014 90.2885 36.556 89.5685 34.9C88.8845 33.244 88.5425 31.498 88.5425 29.662C88.5425 27.826 88.8845 26.08 89.5685 24.424C90.2885 22.732 91.2785 21.256 92.5385 19.996C93.7625 18.736 95.2025 17.764 96.8585 17.08C98.5505 16.396 100.315 16.054 102.151 16.054C103.987 16.054 105.733 16.396 107.389 17.08C109.081 17.764 110.539 18.736 111.763 19.996C114.427 22.732 115.759 25.9 115.759 29.5C115.759 30.148 115.705 30.832 115.597 31.552H93.7265ZM102.151 20.482C100.675 20.482 99.2885 20.806 97.9925 21.454C96.6965 22.102 95.6525 22.966 94.8605 24.046C94.1045 25.09 93.7265 26.206 93.7265 27.394H110.575C110.575 26.206 110.179 25.09 109.387 24.046C108.631 22.966 107.605 22.102 106.309 21.454C105.013 20.806 103.627 20.482 102.151 20.482ZM134.82 21.184C133.956 20.788 133.182 20.59 132.498 20.59C131.058 20.59 129.87 21.094 128.934 22.102C127.926 23.182 127.422 24.424 127.422 25.828V43H122.778V25.828C122.778 23.884 123.264 22.102 124.236 20.482C125.244 18.862 126.612 17.602 128.34 16.702C129.636 16.09 131.022 15.784 132.498 15.784C133.686 15.784 134.82 16 135.9 16.432C136.98 16.864 138.114 17.566 139.302 18.538L134.82 21.184ZM163.366 43V38.896C162.214 40.228 160.882 41.29 159.37 42.082C157.858 42.874 156.256 43.27 154.564 43.27C152.692 43.27 150.928 42.928 149.272 42.244C147.652 41.56 146.212 40.588 144.952 39.328C143.692 38.104 142.702 36.664 141.982 35.008C141.298 33.316 140.956 31.552 140.956 29.716C140.956 27.88 141.298 26.134 141.982 24.478C142.702 22.786 143.692 21.31 144.952 20.05C146.212 18.79 147.652 17.818 149.272 17.134C150.928 16.45 152.692 16.108 154.564 16.108C156.292 16.108 157.912 16.468 159.424 17.188C160.972 17.908 162.286 18.916 163.366 20.212V16.648H168.226V43H163.366ZM154.564 20.914C153.376 20.914 152.224 21.148 151.108 21.616C150.028 22.048 149.092 22.66 148.3 23.452C147.508 24.244 146.878 25.198 146.41 26.314C145.978 27.394 145.762 28.528 145.762 29.716C145.762 30.904 145.978 32.038 146.41 33.118C146.878 34.198 147.508 35.134 148.3 35.926C149.092 36.718 150.028 37.348 151.108 37.816C152.224 38.248 153.376 38.464 154.564 38.464C155.752 38.464 156.886 38.248 157.966 37.816C159.046 37.348 159.982 36.718 160.774 35.926C161.566 35.134 162.178 34.198 162.61 33.118C163.078 32.038 163.312 30.904 163.312 29.716C163.312 28.528 163.078 27.394 162.61 26.314C162.178 25.198 161.566 24.244 160.774 23.452C159.982 22.66 159.046 22.048 157.966 21.616C156.886 21.148 155.752 20.914 154.564 20.914Z" fill="currentColor"></path>
    <defs>
      <clipPath id="clip0_5_10">
        <rect width="40" height="40" fill="white" transform="translate(3 3)"></rect>
      </clipPath>
    </defs>
  </symbol>
  <symbol xmlns="http://www.w3.org/2000/svg" fill="none" stroke="currentColor" stroke-width="2" stroke-linecap="round" stroke-linejoin="round" viewBox="0 0 24 24" id="sun">
    <path stroke="none" d="M0 0h24v24H0z" fill="none"></path>
    <path d="M12 12m-4 0a4 4 0 1 0 8 0a4 4 0 1 0 -8 0"></path>
    <path d="M3 12h1m8 -9v1m8 8h1m-9 8v1m-6.4 -15.4l.7 .7m12.1 -.7l-.7 .7m0 11.4l.7 .7m-12.1 -.7l-.7 .7"></path>
  </symbol>
  <symbol xmlns="http://www.w3.org/2000/svg" fill="none" stroke="currentColor" stroke-width="2" stroke-linecap="round" stroke-linejoin="round" viewBox="0 0 24 24" id="world">
    <path stroke="none" d="M0 0h24v24H0z" fill="none"></path>
    <path d="M3 12a9 9 0 1 0 18 0a9 9 0 0 0 -18 0"></path>
    <path d="M3.6 9h16.8"></path>
    <path d="M3.6 15h16.8"></path>
    <path d="M11.5 3a17 17 0 0 0 0 18"></path>
    <path d="M12.5 3a17 17 0 0 1 0 18"></path>
  </symbol>
</svg>